# xmcd CD database file
#
# Track frame offsets:
#	150
#	15812
#	32445
#	52864
#	66102
#	76412
#	88315
#	102954
#	119462
#	138642
#	151432
#	166270
#
# Disc length: 2368 seconds
#
# Revision: 0
# Processed by: cddbd v1.4PL0 Copyright (c) Steve Scherf et al.
# Submitted via: CDex 1.40Release
#
DISCID=8e093e0c
DTITLE=The Bel Airs - HooDoo Party
DYEAR=1999
DGENRE=Blues
TTITLE0=HooDoo Party
TTITLE1=Strange Things
TTITLE2=Sugar Mama
TTITLE3=Big City
TTITLE4=I'm Lost Without You
TTITLE5=Every Day I Cry Some
TTITLE6=Good Lover
TTITLE7=How Come People Act Like That
TTITLE8=Who Been Foolin' You
TTITLE9=Left Me To Roam
TTITLE10=Take This Hurt Off Me
TTITLE11=House On Fire
EXTD=YEAR: 1999 ID3G: 0
EXTT0=
EXTT1=
EXTT2=
EXTT3=
EXTT4=
EXTT5=
EXTT6=
EXTT7=
EXTT8=
EXTT9=
EXTT10=
EXTT11=
PLAYORDER=
